<?xml version="1.0" encoding="utf-8"?>
<!-- Generator: Adobe Illustrator 16.0.0, SVG Export Plug-In . SVG Version: 6.00 Build 0)  -->
<!DOCTYPE svg PUBLIC "-//W3C//DTD SVG 1.1//EN" "http://www.w3.org/Graphics/SVG/1.1/DTD/svg11.dtd">
<svg version="1.1"
	 id="Layer_1" xmlns:rdf="http://www.w3.org/1999/02/22-rdf-syntax-ns#" xmlns:dc="http://purl.org/dc/elements/1.1/" xmlns:cc="http://creativecommons.org/ns#"
	 xmlns="http://www.w3.org/2000/svg" xmlns:xlink="http://www.w3.org/1999/xlink" x="0px" y="0px" width="480px" height="470px"
	 viewBox="0 0 480 470" enable-background="new 0 0 480 470" xml:space="preserve">
<g>
	<path fill="#fff" d="M232.22,318.607c22.564,20.564,81.045,14.806,105.58,0.011c2.234-2.144-0.438-6.156-0.899-19.918V121.3
		v-0.003c-0.003-0.734-0.725-1.495-1.49-1.49H296.6c-0.835-0.005-1.502,0.756-1.5,1.495v46.387
		C214.64,152.908,169.08,259.408,232.22,318.607z M295.1,201.06v96.52c-38.859,8.854-48.165-20.364-49.107-49.118
		C245.843,237.51,248.846,188.104,295.1,201.06z"/>
	<path fill="#fff" d="M143.51,329.41h39.19v0.008c0.757-0.004,1.499-0.76,1.5-1.5v-206.61c-0.001-0.738-0.743-1.5-1.5-1.495
		h-39.19c-0.747-0.005-1.506,0.756-1.5,1.487v206.61C142.004,328.65,142.764,329.406,143.51,329.41z"/>
	<path fill="#fff" d="M0,0v470h480V0H0z M444,433H36.67V37H444V433z"/>
</g>
</svg>
