<?xml version="1.0" encoding="utf-8"?>
<!-- Generator: Adobe Illustrator 16.0.0, SVG Export Plug-In . SVG Version: 6.00 Build 0)  -->
<!DOCTYPE svg PUBLIC "-//W3C//DTD SVG 1.1//EN" "http://www.w3.org/Graphics/SVG/1.1/DTD/svg11.dtd">
<svg version="1.1" id="Layer_1" xmlns="http://www.w3.org/2000/svg" xmlns:xlink="http://www.w3.org/1999/xlink" x="0px" y="0px"
	 width="480px" height="470px" viewBox="16.997 8 480 470" enable-background="new 16.997 8 480 470" xml:space="preserve">
<rect x="320.2" y="177.7" fill="#fff" width="42.5" height="159.8"/>
<path fill="#fff" d="M341.7,158.6c12.1,0,22-9.8,22-21.8s-9.9-21.8-22-21.8c-12.103,0-22,9.8-22,21.8
	C319.7,148.9,329.5,158.6,341.7,158.6z"/>
<path fill="#fff" d="M16.997,8v470h480V8H16.997z M461,441H53.67V45H461V441z"/>
<path fill="#fff" d="M184.98,283.93h57.502l15.543,53.532h43.517L238.34,127.477h-52.842v20.722l-55.432,189.263h39.372
	L184.98,283.93z M213.47,164.83l21.24,82.37h-42.48L213.47,164.83z"/>
</svg>
