<?xml version="1.0" encoding="UTF-8" standalone="no"?>
<svg xmlns:rdf="http://www.w3.org/1999/02/22-rdf-syntax-ns#" xmlns="http://www.w3.org/2000/svg" height="470" width="480" version="1.1" xmlns:cc="http://creativecommons.org/ns#" xmlns:dc="http://purl.org/dc/elements/1.1/">
 <g>
  <rect height="470" width="480" y="0" x="0" fill="#515151"/>
  <path d="m295.1 297.58v-96.52c-46.254-12.956-49.257 36.45-49.108 47.402 0.94237 28.754 10.248 57.972 49.108 49.118zm-258.43-260.58v396h407.33v-396zm300.23 84.3v177.4c0.46142 13.762 3.1345 17.774 0.9 19.918-24.534 14.795-83.016 20.554-105.58-0.01-63.14-59.2-17.58-165.7 62.88-150.92v-46.387c-0.002-0.73828 0.66446-1.5 1.5-1.4947h38.81c0.76564-0.005 1.4877 0.75641 1.49 1.49zm-154.2 208.11h-39.19c-0.74625-0.004-1.5061-0.75954-1.5-1.4998v-206.61c-0.006-0.73046 0.75375-1.4922 1.5-1.4869h39.19c0.75703-0.005 1.4992 0.75641 1.5 1.4947v206.61c-0.00078 0.7403-0.74297 1.4961-1.5 1.4998z" fill="#fff"/>
 </g>
</svg>
